<?xml version="1.0" encoding="UTF-8"?>
<svg version="1.1" xmlns="http://www.w3.org/2000/svg" width="241" height="62">
<path d="M0 0 C79.53 0 159.06 0 241 0 C241 20.46 241 40.92 241 62 C161.47 62 81.94 62 0 62 C0 41.54 0 21.08 0 0 Z " fill="#FBFAFA" transform="translate(0,0)"/>
<path d="M0 0 C6.14106043 5.23341942 10.06025515 11.51385961 10.92578125 19.6015625 C11.21945226 29.09177304 8.25664358 36.66822094 1.7578125 43.6171875 C-5.21919557 49.54106227 -13.07704158 51.75676882 -22.046875 51.6484375 C-30.97356868 50.90098707 -38.48242311 47.19508995 -44.3125 40.375 C-49.52925023 32.12525545 -50.14225533 23.93648292 -49.3125 14.375 C-47.20713851 6.90785342 -42.64426474 1.70472103 -36.3125 -2.625 C-24.52449707 -9.21169854 -10.70364629 -7.97215199 0 0 Z " fill="#E23A34" transform="translate(53.3125,8.625)"/>
<path d="M0 0 C1.3984375 1.5 1.3984375 1.5 1.3984375 4.5 C-6.03013393 6.64285714 -6.03013393 6.64285714 -9.6015625 7.5 C-9.1065625 7.95375 -8.6115625 8.4075 -8.1015625 8.875 C-6.6015625 10.5 -6.6015625 10.5 -6.6015625 12.5 C-7.21644531 12.56058594 -7.83132812 12.62117188 -8.46484375 12.68359375 C-9.27308594 12.76738281 -10.08132812 12.85117187 -10.9140625 12.9375 C-11.71457031 13.01871094 -12.51507813 13.09992187 -13.33984375 13.18359375 C-15.76243429 13.45265693 -15.76243429 13.45265693 -18.6015625 14.5 C-18.8490625 13.38625 -19.0965625 12.2725 -19.3515625 11.125 C-20.18230708 7.44462512 -20.18230708 7.44462512 -22.6796875 6.2734375 C-23.31390625 6.01820312 -23.948125 5.76296875 -24.6015625 5.5 C-24.58585205 6.15073486 -24.5701416 6.80146973 -24.55395508 7.47192383 C-24.49161601 10.41869424 -24.45257566 13.36532598 -24.4140625 16.3125 C-24.38892578 17.33666016 -24.36378906 18.36082031 -24.33789062 19.41601562 C-24.32822266 20.39892578 -24.31855469 21.38183594 -24.30859375 22.39453125 C-24.2928833 23.30050049 -24.27717285 24.20646973 -24.26098633 25.13989258 C-24.6015625 27.5 -24.6015625 27.5 -25.90112305 29.29174805 C-28.77078353 31.33079324 -31.2182533 30.92291365 -34.6015625 30.5 C-37.62639025 27.48927402 -38.0406645 24.92308643 -38.2890625 20.75 C-38.35480469 19.76515625 -38.42054687 18.7803125 -38.48828125 17.765625 C-38.52566406 17.01796875 -38.56304687 16.2703125 -38.6015625 15.5 C-41.0765625 14.51 -41.0765625 14.51 -43.6015625 13.5 C-43.45952913 15.87528151 -43.31304638 18.25015251 -43.1640625 20.625 C-43.12474609 21.29015625 -43.08542969 21.9553125 -43.04492188 22.640625 C-42.97518567 30.22095774 -42.97518567 30.22095774 -39.6015625 36.5 C-39.6015625 37.16 -39.6015625 37.82 -39.6015625 38.5 C-38.9415625 39.16 -38.2815625 39.82 -37.6015625 40.5 C-40.74984773 41.54942841 -41.63102139 41.75383787 -44.6015625 40.5 C-46.05078125 38.5390625 -46.05078125 38.5390625 -47.2890625 36.125 C-47.70542969 35.33351562 -48.12179688 34.54203125 -48.55078125 33.7265625 C-51.8253016 26.78798777 -51.8361533 17.87875897 -49.765625 10.53515625 C-46.46746105 3.35224215 -41.13042866 -2.0891165 -33.9140625 -5.375 C-21.68002089 -9.52995753 -10.33144309 -7.84046274 0 0 Z " fill="#E23831" transform="translate(54.6015625,9.5)"/>
<path d="M0 0 C15.51 0 31.02 0 47 0 C47.495 0.99 47.495 0.99 48 2 C48.66 2 49.32 2 50 2 C50.495 4.475 50.495 4.475 51 7 C50.39671875 6.79503906 49.7934375 6.59007812 49.171875 6.37890625 C48.37265625 6.10949219 47.5734375 5.84007812 46.75 5.5625 C45.96109375 5.29566406 45.1721875 5.02882813 44.359375 4.75390625 C35.72021736 1.99338071 28.36766835 2.43720371 20 6 C17.27018168 7.35400645 17.27018168 7.35400645 15 9 C14.175 9.515625 13.35 10.03125 12.5 10.5625 C6.60528416 16.30984794 4.66689764 22.40249821 4.4375 30.5625 C4.7392175 39.10541564 6.97235511 45.79507143 13 52 C14.95851344 53.39355764 16.95127113 54.74282547 19 56 C18.34 57.98 17.68 59.96 17 62 C11.39 62 5.78 62 0 62 C0 41.54 0 21.08 0 0 Z " fill="#FDFCFB" transform="translate(0,0)"/>
<path d="M0 0 C4.875 1.875 4.875 1.875 6 3 C6.04080783 4.99958364 6.04254356 7.00045254 6 9 C6.66 8.67 7.32 8.34 8 8 C12.91996928 7.46881748 16.77327597 7.24894447 21.0625 9.875 C23.72188974 12.79175004 24.12470738 14.29155246 24.09765625 18.1328125 C24.09443359 18.93847656 24.09121094 19.74414062 24.08789062 20.57421875 C24.07532227 21.83685547 24.07532227 21.83685547 24.0625 23.125 C24.05798828 23.97449219 24.05347656 24.82398437 24.04882812 25.69921875 C24.03702874 27.79950909 24.01909306 29.8997633 24 32 C20.125 30.125 20.125 30.125 19 29 C18.75585984 25.93016348 18.61589326 22.8614327 18.4765625 19.78515625 C18.31929687 18.86605469 18.16203125 17.94695313 18 17 C14.54754176 14.69836118 13.05261287 14.65509678 9 15 C6.19966403 17.80033597 5.85111115 20.81768874 4.87890625 24.58984375 C3.94080205 27.16233393 3.13809153 28.32419853 1 30 C-3.09317828 31.36439276 -6.73029397 31.77052642 -11 31 C-14.3783535 28.96673169 -17.22346489 26.55307023 -19 23 C-19.0716735 20.44842345 -19.09308442 17.92527029 -19.0625 15.375 C-19.05798828 14.66859375 -19.05347656 13.9621875 -19.04882812 13.234375 C-19.03703875 11.48954725 -19.01910324 9.744763 -19 8 C-14.125 8.875 -14.125 8.875 -13 10 C-12.71520878 12.77558423 -12.55156981 15.55127845 -12.37890625 18.3359375 C-12.16415406 21.22178086 -12.16415406 21.22178086 -10 24 C-6.5 24.41666667 -6.5 24.41666667 -3 24 C-0.47871644 21.47871644 -0.70646931 20.48760987 -0.5859375 16.9921875 C-0.54726563 16.00605469 -0.50859375 15.01992188 -0.46875 14.00390625 C-0.4378125 12.97136719 -0.406875 11.93882813 -0.375 10.875 C-0.33632813 9.83472656 -0.29765625 8.79445313 -0.2578125 7.72265625 C-0.16335234 5.14861689 -0.07778786 2.57458845 0 0 Z " fill="#FAF6F4" transform="translate(30,15)"/>
<path d="M0 0 C1.80834488 0.20693674 3.62109337 0.38337678 5.4375 0.5 C5.7675 0.17 6.0975 -0.16 6.4375 -0.5 C13.0375 0.1 13.0375 0.1 15.4375 2.5 C15.6328125 5.5390625 15.6328125 5.5390625 15.5625 9.125 C15.54445312 10.31351563 15.52640625 11.50203125 15.5078125 12.7265625 C15.48460937 13.64179688 15.46140625 14.55703125 15.4375 15.5 C13.7875 15.5 12.1375 15.5 10.4375 15.5 C10.1075 11.87 9.7775 8.24 9.4375 4.5 C7.4575 4.5 5.4775 4.5 3.4375 4.5 C3.4375 8.13 3.4375 11.76 3.4375 15.5 C1.7875 15.5 0.1375 15.5 -1.5625 15.5 C-1.8925 11.87 -2.2225 8.24 -2.5625 4.5 C-4.5425 4.5 -6.5225 4.5 -8.5625 4.5 C-8.5625 8.13 -8.5625 11.76 -8.5625 15.5 C-10.2125 15.5 -11.8625 15.5 -13.5625 15.5 C-13.5625 10.55 -13.5625 5.6 -13.5625 0.5 C-11.5825 0.5 -9.6025 0.5 -7.5625 0.5 C-4.83847171 -0.86201415 -3.00700469 -0.34500184 0 0 Z " fill="#E04442" transform="translate(166.5625,15.5)"/>
<path d="M0 0 C1.65 0 3.3 0 5 0 C5.06058594 1.14339844 5.12117188 2.28679688 5.18359375 3.46484375 C5.26798428 4.95574305 5.35263302 6.44662775 5.4375 7.9375 C5.47681641 8.69224609 5.51613281 9.44699219 5.55664062 10.22460938 C5.44038024 13.91944187 5.44038024 13.91944187 7 17 C10.5 17.16666667 10.5 17.16666667 14 17 C16.05922402 14.94077598 15.41427579 10.78291876 15.5625 7.9375 C15.60568359 7.17888672 15.64886719 6.42027344 15.69335938 5.63867188 C15.79973633 3.75934562 15.90039934 1.87969756 16 0 C17.65 0 19.3 0 21 0 C21.08112454 2.58396679 21.14054748 5.16537568 21.1875 7.75 C21.21263672 8.47960938 21.23777344 9.20921875 21.26367188 9.9609375 C21.30798412 13.21050186 21.2353876 15.56394273 19.67578125 18.453125 C16.81439009 21.09440914 13.85821318 21.20470205 10.125 21.3125 C9.28195313 21.34988281 8.43890625 21.38726563 7.5703125 21.42578125 C3.91822527 20.82080024 2.43414304 19.79731891 0 17 C-0.60091163 14.05710258 -0.47352796 11.23768796 -0.3125 8.25 C-0.28994141 7.45722656 -0.26738281 6.66445313 -0.24414062 5.84765625 C-0.18540471 3.8976238 -0.09572654 1.94856688 0 0 Z " fill="#E0423D" transform="translate(70,10)"/>
<path d="M0 0 C3.33161397 2.98696425 5.34826557 5.82719722 7 10 C6.6875 12.375 6.6875 12.375 6 14 C6 13.34 6 12.68 6 12 C4.68 12 3.36 12 2 12 C0.31438733 17.21443596 -0.38512698 21.97539135 -0.625 27.4375 C-0.66367187 28.16904297 -0.70234375 28.90058594 -0.7421875 29.65429688 C-0.83533984 31.43583532 -0.91870286 33.21788122 -1 35 C-1.33 35 -1.66 35 -2 35 C-2.01417969 33.75863281 -2.02835938 32.51726563 -2.04296875 31.23828125 C-2.089882 29.59631757 -2.13812932 27.95439163 -2.1875 26.3125 C-2.19330078 25.49587891 -2.19910156 24.67925781 -2.20507812 23.83789062 C-2.36181977 19.53620323 -2.61745992 17.5153665 -5.25 13.96875 C-8.05127428 11.96329227 -9.427862 11.33905096 -12.8125 11.1875 C-13.60269531 11.13980469 -14.39289062 11.09210937 -15.20703125 11.04296875 C-16.09455078 11.02169922 -16.09455078 11.02169922 -17 11 C-17 10.67 -17 10.34 -17 10 C-14.36 9.67 -11.72 9.34 -9 9 C-9 8.34 -9 7.68 -9 7 C-10.9600281 5.36323743 -10.9600281 5.36323743 -13 4 C-8.46298506 2.54815522 -4.81938524 1.76490804 0 2 C0 1.34 0 0.68 0 0 Z " fill="#E3433E" transform="translate(56,12)"/>
<path d="M0 0 C1.93719378 -0.05406122 3.87481921 -0.09282025 5.8125 -0.125 C6.89144531 -0.14820313 7.97039062 -0.17140625 9.08203125 -0.1953125 C12 0 12 0 15 2 C15.29296875 5.0390625 15.29296875 5.0390625 15.1875 8.625 C15.16042969 9.81351563 15.13335937 11.00203125 15.10546875 12.2265625 C15.07066406 13.14179688 15.03585938 14.05703125 15 15 C12.72942623 15.05398987 10.45848712 15.09278742 8.1875 15.125 C6.29064453 15.15980469 6.29064453 15.15980469 4.35546875 15.1953125 C1 15 1 15 -2 13 C-2.375 10.5 -2.375 10.5 -2 8 C1.20380017 5.86413322 2.01939967 5.76867825 5.6875 5.875 C6.89986328 5.90207031 6.89986328 5.90207031 8.13671875 5.9296875 C9.05904297 5.96449219 9.05904297 5.96449219 10 6 C10 5.01 10 4.02 10 3 C6.37 3 2.74 3 -1 3 C-0.67 2.01 -0.34 1.02 0 0 Z " fill="#E03F3B" transform="translate(188,16)"/>
<path d="M0 0 C1.16015625 0.02320313 1.16015625 0.02320313 2.34375 0.046875 C4.5 0.25 4.5 0.25 7.5 1.25 C7.5 2.24 7.5 3.23 7.5 4.25 C4.53 4.25 1.56 4.25 -1.5 4.25 C-1.5 5.24 -1.5 6.23 -1.5 7.25 C-0.87351563 7.51554687 -0.24703125 7.78109375 0.3984375 8.0546875 C1.62433594 8.58449219 1.62433594 8.58449219 2.875 9.125 C3.68710938 9.47304688 4.49921875 9.82109375 5.3359375 10.1796875 C7.5 11.25 7.5 11.25 9.5 13.25 C9.34321804 16.30724825 9.01163279 17.76711062 6.76171875 19.890625 C4.09046204 21.49614717 2.53004612 21.62313816 -0.5625 21.5625 C-1.84833984 21.55669922 -1.84833984 21.55669922 -3.16015625 21.55078125 C-5.5 21.25 -5.5 21.25 -8.5 19.25 C-8.5 18.59 -8.5 17.93 -8.5 17.25 C-4.54 17.25 -0.58 17.25 3.5 17.25 C2.83832443 14.19664276 2.83832443 14.19664276 0.72265625 13.15234375 C0.00980469 12.83394531 -0.70304688 12.51554687 -1.4375 12.1875 C-4.00887099 11.02548298 -5.47683978 10.27316022 -7.5 8.25 C-7.85997243 5.44221501 -7.99427261 3.90643145 -6.26171875 1.60546875 C-4.02128968 -0.11832036 -2.79606647 -0.09320222 0 0 Z " fill="#E03F3B" transform="translate(139.5,9.75)"/>
<path d="M0 0 C2.4375 0.375 2.4375 0.375 5 1 C6.17635297 3.35270593 6.13359359 4.820752 6.125 7.4375 C6.12757812 8.21996094 6.13015625 9.00242187 6.1328125 9.80859375 C6 12 6 12 5 15 C4.01 15 3.02 15 2 15 C2.268125 15.556875 2.53625 16.11375 2.8125 16.6875 C2.9053125 17.8321875 2.9053125 17.8321875 3 19 C1.38481721 20.71660715 -0.28071449 22.38766849 -2 24 C-2.3690205 7.1070615 -2.3690205 7.1070615 0 0 Z " fill="#E3342B" transform="translate(57,23)"/>
<path d="M0 0 C1.65 0 3.3 0 5 0 C5 1.32 5 2.64 5 4 C6.65 4 8.3 4 10 4 C10 4.99 10 5.98 10 7 C8.35 7 6.7 7 5 7 C5.33 9.64 5.66 12.28 6 15 C7.32 15.33 8.64 15.66 10 16 C10 16.99 10 17.98 10 19 C3.51747312 19.36693548 3.51747312 19.36693548 1.28125 17.78125 C-0.3746715 15.47911524 -0.3094704 14.11781917 -0.1875 11.3125 C-0.16042969 10.50425781 -0.13335937 9.69601563 -0.10546875 8.86328125 C-0.07066406 8.24839844 -0.03585938 7.63351563 0 7 C-0.99 7 -1.98 7 -3 7 C-3 6.01 -3 5.02 -3 4 C-2.01 4 -1.02 4 0 4 C0 2.68 0 1.36 0 0 Z " fill="#DE423F" transform="translate(108,12)"/>
<path d="M0 0 C1.65 0 3.3 0 5 0 C5 1.32 5 2.64 5 4 C6.65 4 8.3 4 10 4 C10 4.99 10 5.98 10 7 C8.35 7 6.7 7 5 7 C5.33 9.64 5.66 12.28 6 15 C7.32 15.33 8.64 15.66 10 16 C10 16.99 10 17.98 10 19 C3.51747312 19.36693548 3.51747312 19.36693548 1.28125 17.78125 C-0.3746715 15.47911524 -0.3094704 14.11781917 -0.1875 11.3125 C-0.16042969 10.50425781 -0.13335937 9.69601563 -0.10546875 8.86328125 C-0.05326172 7.94095703 -0.05326172 7.94095703 0 7 C-0.66 7 -1.32 7 -2 7 C-2 6.01 -2 5.02 -2 4 C-1.34 4 -0.68 4 0 4 C0 2.68 0 1.36 0 0 Z " fill="#DE342D" transform="translate(224,12)"/>
<path d="M0 0 C0.99 0 1.98 0 3 0 C3 4.62 3 9.24 3 14 C-3.8359375 14.1953125 -3.8359375 14.1953125 -6 14 C-8 12 -8 12 -8.25 9 C-8 6 -8 6 -6 4 C-2.875 3.875 -2.875 3.875 0 4 C0 2.68 0 1.36 0 0 Z " fill="#272727" transform="translate(214,39)"/>
<path d="M0 0 C1.65 0 3.3 0 5 0 C5 7.26 5 14.52 5 22 C3.35 22 1.7 22 0 22 C0 14.74 0 7.48 0 0 Z " fill="#E13F3B" transform="translate(97,9)"/>
<path d="M0 0 C0.33 0 0.66 0 1 0 C1.33 0.99 1.66 1.98 2 3 C2.72574219 2.78472656 3.45148438 2.56945312 4.19921875 2.34765625 C7.64412618 1.9200457 8.8900121 2.64911188 11.8125 4.4375 C12.60269531 4.91058594 13.39289063 5.38367188 14.20703125 5.87109375 C14.79871094 6.24363281 15.39039063 6.61617187 16 7 C16 7.99 16 8.98 16 10 C11.6835078 10.76173392 8.25566547 11.16063604 4 10 C4.33 10.99 4.66 11.98 5 13 C3.35 13 1.7 13 0 13 C0 8.71 0 4.42 0 0 Z M1 13 C3 14 3 14 3 14 Z " fill="#F9F0EE" transform="translate(127,17)"/>
<path d="M0 0 C1.98 0 3.96 0 6 0 C5.67 6.93 5.34 13.86 5 21 C3.35 21 1.7 21 0 21 C0 14.07 0 7.14 0 0 Z " fill="#E35050" transform="translate(122,10)"/>
<path d="M0 0 C0.33 0.66 0.66 1.32 1 2 C1.66 2.33 2.32 2.66 3 3 C3 3.66 3 4.32 3 5 C3.99 5 4.98 5 6 5 C6 9.95 6 14.9 6 20 C5.67 20 5.34 20 5 20 C4.92652344 19.04287109 4.92652344 19.04287109 4.8515625 18.06640625 C4.73941406 16.82697266 4.73941406 16.82697266 4.625 15.5625 C4.55539063 14.73878906 4.48578125 13.91507813 4.4140625 13.06640625 C4.20910156 12.04353516 4.20910156 12.04353516 4 11 C3.34 10.67 2.68 10.34 2 10 C1.67 10.66 1.34 11.32 1 12 C0.2265625 11.3503125 0.2265625 11.3503125 -0.5625 10.6875 C-3.582386 8.59680969 -6.5958835 7.37473935 -10 6 C-9.67 4.68 -9.34 3.36 -9 2 C-6.03 2.33 -3.06 2.66 0 3 C0 2.01 0 1.02 0 0 Z " fill="#F9EAE6" transform="translate(147,11)"/>
<path d="M0 0 C3.5625 0.25 3.5625 0.25 6.5625 2.25 C7 4.6875 7 4.6875 6.5625 7.25 C4.25469344 9.82409193 2.88852209 10.21739779 -0.5625 10.5625 C-3.4375 10.25 -3.4375 10.25 -5.4375 8.25 C-5.6875 5.25 -5.6875 5.25 -5.4375 2.25 C-3.4375 0.25 -3.4375 0.25 0 0 Z " fill="#363636" transform="translate(150.4375,42.75)"/>
<path d="M0 0 C1.81274414 0.01450195 1.81274414 0.01450195 3.66210938 0.02929688 C5.55606445 0.06700195 5.55606445 0.06700195 7.48828125 0.10546875 C9.39963867 0.12577148 9.39963867 0.12577148 11.34960938 0.14648438 C14.50042182 0.18188676 17.6503917 0.23127085 20.80078125 0.29296875 C21.13078125 0.95296875 21.46078125 1.61296875 21.80078125 2.29296875 C22.46078125 2.29296875 23.12078125 2.29296875 23.80078125 2.29296875 C24.29578125 4.76796875 24.29578125 4.76796875 24.80078125 7.29296875 C24.1975 7.08800781 23.59421875 6.88304687 22.97265625 6.671875 C22.1734375 6.40246094 21.37421875 6.13304687 20.55078125 5.85546875 C19.761875 5.58863281 18.97296875 5.32179688 18.16015625 5.046875 C8.77611036 2.04833054 1.11040585 3.36957261 -8.19921875 6.29296875 C-8.52921875 5.30296875 -8.85921875 4.31296875 -9.19921875 3.29296875 C-6.54997804 -0.23528271 -4.24924253 -0.05984849 0 0 Z " fill="#FBF9F8" transform="translate(26.19921875,-0.29296875)"/>
<path d="M0 0 C0 0.99 0 1.98 0 3 C-1.98 3.66 -3.96 4.32 -6 5 C-6.33 8.3 -6.66 11.6 -7 15 C-8.65 15 -10.3 15 -12 15 C-12 10.05 -12 5.1 -12 0 C-10.02 0 -8.04 0 -6 0 C-3.50907189 -1.24546405 -2.58919267 -0.7767578 0 0 Z " fill="#E13F3F" transform="translate(220,16)"/>
<path d="M0 0 C3.5 0.25 3.5 0.25 5.5 2.25 C5.125 4.375 5.125 4.375 4.5 6.25 C2.52 6.58 0.54 6.91 -1.5 7.25 C1.47 7.745 1.47 7.745 4.5 8.25 C4.17 8.91 3.84 9.57 3.5 10.25 C0.125 10.375 0.125 10.375 -3.5 10.25 C-5.5 8.25 -5.5 8.25 -5.75 5.25 C-5.37802459 0.78629509 -4.42019834 0.31572845 0 0 Z " fill="#222222" transform="translate(121.5,42.75)"/>
<path d="M0 0 C0.598125 0.20625 1.19625 0.4125 1.8125 0.625 C0.8225 0.625 -0.1675 0.625 -1.1875 0.625 C-1.1875 1.285 -1.1875 1.945 -1.1875 2.625 C-0.5275 2.295 0.1325 1.965 0.8125 1.625 C2.81210012 1.585008 4.81297242 1.58153201 6.8125 1.625 C6.23665568 4.01064077 5.59022405 6.29182784 4.8125 8.625 C-1.8125 8.875 -1.8125 8.875 -5.1875 6.625 C-5.5625 4.125 -5.5625 4.125 -5.1875 1.625 C-2.1875 -0.375 -2.1875 -0.375 0 0 Z " fill="#DF4643" transform="translate(191.1875,22.375)"/>
<path d="M0 0 C0 3.63 0 7.26 0 11 C-5 9 -5 9 -7 8 C-7 5.36 -7 2.72 -7 0 C-5 -1 -5 -1 0 0 Z " fill="#FBF5F4" transform="translate(165,20)"/>
<path d="M0 0 C8.75 -0.125 8.75 -0.125 11 1 C11 3.97 11 6.94 11 10 C10.01 10 9.02 10 8 10 C7.67 7.69 7.34 5.38 7 3 C6.01 3 5.02 3 4 3 C3.67 5.31 3.34 7.62 3 10 C2.01 10 1.02 10 0 10 C0 6.7 0 3.4 0 0 Z " fill="#252525" transform="translate(93,43)"/>
<path d="M0 0 C1.65 0.33 3.3 0.66 5 1 C4.67 5.29 4.34 9.58 4 14 C2.35 14 0.7 14 -1 14 C-1.02694851 12.04174127 -1.04637218 10.08337774 -1.0625 8.125 C-1.07410156 7.03445312 -1.08570313 5.94390625 -1.09765625 4.8203125 C-1 2 -1 2 0 0 Z " fill="#DF3633" transform="translate(166,17)"/>
<path d="M0 0 C2.49361571 1.20381448 4.68143083 2.45428722 7 4 C9.27912938 4.45394552 9.27912938 4.45394552 11.6875 4.625 C12.89986328 4.73714844 12.89986328 4.73714844 14.13671875 4.8515625 C14.75160156 4.90054688 15.36648437 4.94953125 16 5 C16 5.33 16 5.66 16 6 C14.906875 6.0825 13.81375 6.165 12.6875 6.25 C9.02500718 6.65073293 9.02500718 6.65073293 7.125 8.8125 C6.05350162 10.89596908 5.41077678 12.69965002 5 15 C3.35 13.35 1.7 11.7 0 10 C1.32 9.67 2.64 9.34 4 9 C3.34 8.34 2.68 7.68 2 7 C0.45473667 4.33871316 0 3.15084005 0 0 Z " fill="#DE413C" transform="translate(12,41)"/>
<path d="M0 0 C1.32 0 2.64 0 4 0 C4.05383848 2.45862401 4.09359038 4.9160755 4.125 7.375 C4.14175781 8.07367188 4.15851563 8.77234375 4.17578125 9.4921875 C4.19344267 11.32897486 4.10303261 13.16601963 4 15 C3.34 15.66 2.68 16.32 2 17 C2 16.34 2 15.68 2 15 C1.34 15 0.68 15 0 15 C0 10.05 0 5.1 0 0 Z " fill="#E22E2A" transform="translate(87,11)"/>
<path d="M0 0 C1.65 0 3.3 0 5 0 C5 1.32 5 2.64 5 4 C6.65 4 8.3 4 10 4 C10 4.99 10 5.98 10 7 C8.35 7 6.7 7 5 7 C5 9.64 5 12.28 5 15 C4.67 15 4.34 15 4 15 C3.80372609 13.41773035 3.61834462 11.83410729 3.4375 10.25 C3.33308594 9.36828125 3.22867188 8.4865625 3.12109375 7.578125 C3.00543324 5.11567549 3.26361305 3.33461936 4 1 C3.01 1 2.02 1 1 1 C1.185625 1.61875 1.37125 2.2375 1.5625 2.875 C2.18652488 7.3323206 1.56103695 11.55486111 1 16 C0.67 16 0.34 16 0 16 C0 13.03 0 10.06 0 7 C-0.66 7 -1.32 7 -2 7 C-2 6.01 -2 5.02 -2 4 C-1.34 4 -0.68 4 0 4 C0 2.68 0 1.36 0 0 Z " fill="#E04B49" transform="translate(224,12)"/>
<path d="M0 0 C1.32 0 2.64 0 4 0 C4 0.66 4 1.32 4 2 C4.99 2 5.98 2 7 2 C7 2.66 7 3.32 7 4 C6.01 4 5.02 4 4 4 C4 5.98 4 7.96 4 10 C4.99 10.33 5.98 10.66 7 11 C4.625 11.625 4.625 11.625 2 12 C-0.25900493 9.74099507 -0.34458029 9.05816925 -0.6875 6 C-0.77386719 5.29875 -0.86023438 4.5975 -0.94921875 3.875 C-1 2 -1 2 0 0 Z " fill="#303030" transform="translate(107,41)"/>
<path d="M0 0 C0.66 0 1.32 0 2 0 C2.33 0.99 2.66 1.98 3 3 C1 6 1 6 -1.625 6.6875 C-2.800625 6.8421875 -2.800625 6.8421875 -4 7 C-2.92598892 4.08482708 -2.22189824 2.22189824 0 0 Z M0 6 C0.66 6.66 1.32 7.32 2 8 C1.67 8.99 1.34 9.98 1 11 C1.66 11.33 2.32 11.66 3 12 C2.01 12 1.02 12 0 12 C0.33 17.61 0.66 23.22 1 29 C0.01 28.34 -0.98 27.68 -2 27 C-2.26464844 24.95288086 -2.26464844 24.95288086 -2.109375 22.46484375 C-2.05910156 21.57345703 -2.00882813 20.68207031 -1.95703125 19.76367188 C-1.88871094 18.83103516 -1.82039062 17.89839844 -1.75 16.9375 C-1.69714844 16.00099609 -1.64429688 15.06449219 -1.58984375 14.09960938 C-1.15753499 7.15753499 -1.15753499 7.15753499 0 6 Z " fill="#DE433E" transform="translate(11,11)"/>
<path d="M0 0 C1.134375 0.020625 2.26875 0.04125 3.4375 0.0625 C3.4375 0.7225 3.4375 1.3825 3.4375 2.0625 C2.1175 2.3925 0.7975 2.7225 -0.5625 3.0625 C1.0875 4.0525 2.7375 5.0425 4.4375 6.0625 C4.1075 7.0525 3.7775 8.0425 3.4375 9.0625 C1.1275 9.3925 -1.1825 9.7225 -3.5625 10.0625 C-3.8925 9.4025 -4.2225 8.7425 -4.5625 8.0625 C-2.9125 8.0625 -1.2625 8.0625 0.4375 8.0625 C0.4375 7.4025 0.4375 6.7425 0.4375 6.0625 C-0.8825 5.7325 -2.2025 5.4025 -3.5625 5.0625 C-4.125 3.125 -4.125 3.125 -4.5625 1.0625 C-3.5625 0.0625 -3.5625 0.0625 0 0 Z " fill="#323232" transform="translate(172.5625,42.9375)"/>
<path d="M0 0 C0.99 0 1.98 0 3 0 C3 3.63 3 7.26 3 11 C5.31 11 7.62 11 10 11 C10 11.66 10 12.32 10 13 C6.7 13 3.4 13 0 13 C0 8.71 0 4.42 0 0 Z " fill="#393939" transform="translate(186,40)"/>
<path d="M0 0 C0.99 0 1.98 0 3 0 C3 0.66 3 1.32 3 2 C3.99 2 4.98 2 6 2 C6 2.66 6 3.32 6 4 C5.01 4 4.02 4 3 4 C3 5.98 3 7.96 3 10 C3.99 10 4.98 10 6 10 C6 10.66 6 11.32 6 12 C4.33388095 12.042721 2.66617115 12.04063832 1 12 C0 11 0 11 -0.0625 7.4375 C-0.041875 6.303125 -0.02125 5.16875 0 4 C-0.66 4 -1.32 4 -2 4 C-2 3.34 -2 2.68 -2 2 C-1.34 2 -0.68 2 0 2 C0 1.34 0 0.68 0 0 Z " fill="#151515" transform="translate(198,41)"/>
<path d="M0 0 C4.455 0.99 4.455 0.99 9 2 C9.33 3.32 9.66 4.64 10 6 C3.25 7.125 3.25 7.125 1 6 C1 5.01 1 4.02 1 3 C0.34 3 -0.32 3 -1 3 C-0.67 2.01 -0.34 1.02 0 0 Z " fill="#FBF7F6" transform="translate(133,21)"/>
<path d="M0 0 C5 2 5 2 6 3 C6.04063832 4.66617115 6.042721 6.33388095 6 8 C5.01 8 4.02 8 3 8 C3 7.34 3 6.68 3 6 C2.34 6 1.68 6 1 6 C1 10.62 1 15.24 1 20 C0.67 20 0.34 20 0 20 C0 13.4 0 6.8 0 0 Z " fill="#FBEEE8" transform="translate(30,15)"/>
<path d="M0 0 C2.64 0 5.28 0 8 0 C8 0.66 8 1.32 8 2 C7.01 2.33 6.02 2.66 5 3 C4.67 5.31 4.34 7.62 4 10 C2.68 10 1.36 10 0 10 C0 6.7 0 3.4 0 0 Z " fill="#3E3E3E" transform="translate(129,43)"/>
<path d="M0 0 C1.16015625 0.02320313 1.16015625 0.02320313 2.34375 0.046875 C4.5 0.25 4.5 0.25 7.5 1.25 C7.5 2.24 7.5 3.23 7.5 4.25 C2.88 4.25 -1.74 4.25 -6.5 4.25 C-6.83 5.57 -7.16 6.89 -7.5 8.25 C-7.86559889 3.74094708 -7.86559889 3.74094708 -6.26953125 1.59765625 C-4.02338516 -0.11298481 -2.79335495 -0.09311183 0 0 Z " fill="#E14B47" transform="translate(139.5,9.75)"/>
<path d="M0 0 C0.99 0 1.98 0 3 0 C3 4.62 3 9.24 3 14 C2.01 14 1.02 14 0 14 C0 9.38 0 4.76 0 0 Z " fill="#E12B22" transform="translate(123,16)"/>
<path d="M0 0 C2.64 0 5.28 0 8 0 C8 0.66 8 1.32 8 2 C7.0409375 2.309375 7.0409375 2.309375 6.0625 2.625 C3.65074923 3.89538209 3.65074923 3.89538209 3.25 7.125 C3.1675 8.07375 3.085 9.0225 3 10 C2.01 9.67 1.02 9.34 0 9 C0 6.03 0 3.06 0 0 Z " fill="#373737" transform="translate(159,43)"/>
<path d="M0 0 C0.66 0.33 1.32 0.66 2 1 C2 1.99 2 2.98 2 4 C0.56274129 4.16873478 -0.87481838 4.33490737 -2.3125 4.5 C-3.11300781 4.5928125 -3.91351563 4.685625 -4.73828125 4.78125 C-7 5 -7 5 -10 5 C-9.6875 3.0625 -9.6875 3.0625 -9 1 C-5.77390955 -0.07536348 -3.37822416 -0.14375422 0 0 Z " fill="#F8E3E0" transform="translate(196,18)"/>
<path d="M0 0 C0.99 0 1.98 0 3 0 C3 4.29 3 8.58 3 13 C2.01 13 1.02 13 0 13 C0 8.71 0 4.42 0 0 Z " fill="#2A2A2A" transform="translate(86,40)"/>
<path d="M0 0 C1.65 0 3.3 0 5 0 C5 1.32 5 2.64 5 4 C6.65 4 8.3 4 10 4 C10 4.66 10 5.32 10 6 C2.25 6.125 2.25 6.125 0 5 C0 3.35 0 1.7 0 0 Z " fill="#E03733" transform="translate(108,12)"/>
<path d="M0 0 C0.5625 1.9375 0.5625 1.9375 1 4 C0 5 0 5 -3.5625 5.0625 C-4.696875 5.041875 -5.83125 5.02125 -7 5 C-6.625 2.5625 -6.625 2.5625 -6 0 C-3.50907189 -1.24546405 -2.58919267 -0.7767578 0 0 Z " fill="#6D6D6D" transform="translate(126,44)"/>
<path d="M0 0 C0.99 0.33 1.98 0.66 3 1 C3 4.63 3 8.26 3 12 C2.01 12 1.02 12 0 12 C0 8.04 0 4.08 0 0 Z " fill="#E12C23" transform="translate(178,18)"/>
<path d="M0 0 C-0.99 0.495 -0.99 0.495 -2 1 C-2.33 1.99 -2.66 2.98 -3 4 C-5.31 4 -7.62 4 -10 4 C-10.33 3.01 -10.66 2.02 -11 1 C-7.2297564 -1.56376565 -4.32597804 -0.83191885 0 0 Z " fill="#E24F4F" transform="translate(168,16)"/>
<path d="M0 0 C2.38564077 0.57584432 4.66682784 1.22227595 7 2 C7.33 3.65 7.66 5.3 8 7 C6.58208592 6.54554036 5.16571954 6.08625056 3.75 5.625 C2.96109375 5.36976563 2.1721875 5.11453125 1.359375 4.8515625 C-0.86627958 4.04826333 -2.90931672 3.10288338 -5 2 C-3.35 2 -1.7 2 0 2 C0 1.34 0 0.68 0 0 Z " fill="#FBF0EB" transform="translate(43,0)"/>
<path d="M0 0 C1.670625 0.061875 1.670625 0.061875 3.375 0.125 C3.705 1.115 4.035 2.105 4.375 3.125 C1.735 3.125 -0.905 3.125 -3.625 3.125 C-3.625 4.775 -3.625 6.425 -3.625 8.125 C-4.285 8.125 -4.945 8.125 -5.625 8.125 C-5.75 5.25 -5.75 5.25 -5.625 2.125 C-3.625 0.125 -3.625 0.125 0 0 Z " fill="#171717" transform="translate(150.625,42.875)"/>
<path d="M0 0 C1.98 0 3.96 0 6 0 C5.67 1.98 5.34 3.96 5 6 C3.68 6 2.36 6 1 6 C0.67 4.02 0.34 2.04 0 0 Z " fill="#E78886" transform="translate(122,10)"/>
<path d="M0 0 C0.99 0 1.98 0 3 0 C3 3.3 3 6.6 3 10 C2.01 10 1.02 10 0 10 C0 6.7 0 3.4 0 0 Z " fill="#282828" transform="translate(139,43)"/>
<path d="M0 0 C1.4540625 0.0309375 1.4540625 0.0309375 2.9375 0.0625 C2.6075 1.3825 2.2775 2.7025 1.9375 4.0625 C0.2875 4.3925 -1.3625 4.7225 -3.0625 5.0625 C-3.625 3.125 -3.625 3.125 -4.0625 1.0625 C-3.0625 0.0625 -3.0625 0.0625 0 0 Z " fill="#F7E1DE" transform="translate(195.0625,23.9375)"/>
<path d="M0 0 C2.475 0.495 2.475 0.495 5 1 C6.26264601 5.29299643 5.62950412 7.87831311 4 12 C3.67 12 3.34 12 3 12 C3 9.03 3 6.06 3 3 C2.01 3 1.02 3 0 3 C0 2.01 0 1.02 0 0 Z " fill="#E65250" transform="translate(105,16)"/>
<path d="M0 0 C1.65 0 3.3 0 5 0 C5 1.65 5 3.3 5 5 C3.35 5.33 1.7 5.66 0 6 C0 4.02 0 2.04 0 0 Z " fill="#EBEBEB" transform="translate(111,45)"/>
<path d="M0 0 C1.98 0.99 1.98 0.99 4 2 C4 2.99 4 3.98 4 5 C4.66 5.66 5.32 6.32 6 7 C6 7.66 6 8.32 6 9 C6.66 9.66 7.32 10.32 8 11 C6.35 11.33 4.7 11.66 3 12 C3.0928125 10.88625 3.0928125 10.88625 3.1875 9.75 C2.96616995 6.50382587 1.98763075 5.48453844 0 3 C0 2.01 0 1.02 0 0 Z " fill="#E3352A" transform="translate(9,39)"/>
<path d="M0 0 C0.99 0 1.98 0 3 0 C3.33 2.97 3.66 5.94 4 9 C2.68 9 1.36 9 0 9 C0 6.03 0 3.06 0 0 Z " fill="#E42D25" transform="translate(209,21)"/>
<path d="M0 0 C1.32 0 2.64 0 4 0 C4 1.65 4 3.3 4 5 C2.68 5.33 1.36 5.66 0 6 C-0.38218767 4.34385343 -0.71395102 2.67542976 -1 1 C-0.67 0.67 -0.34 0.34 0 0 Z " fill="#F3F3F3" transform="translate(149,45)"/>
<path d="M0 0 C0.33 0 0.66 0 1 0 C1.37634203 6.80203375 0.77471079 11.75690073 -2 18 C-4 14.25 -4 14.25 -4 12 C-3.01 12 -2.02 12 -1 12 C-0.67 8.04 -0.34 4.08 0 0 Z " fill="#DF5A56" transform="translate(63,26)"/>
<path d="M0 0 C1.81325551 0.11351517 3.62563357 0.24112961 5.4375 0.375 C6.95150391 0.47941406 6.95150391 0.47941406 8.49609375 0.5859375 C9.73552734 0.79089844 9.73552734 0.79089844 11 1 C11.33 1.66 11.66 2.32 12 3 C8.37 3 4.74 3 1 3 C0.67 2.01 0.34 1.02 0 0 Z " fill="#E33835" transform="translate(131,27)"/>
<path d="M0 0 C1.98 0.495 1.98 0.495 4 1 C3.67 2.65 3.34 4.3 3 6 C1.68 5.67 0.36 5.34 -1 5 C-0.67 3.35 -0.34 1.7 0 0 Z " fill="#ECECEC" transform="translate(210,45)"/>
<path d="M0 0 C0.66 0 1.32 0 2 0 C2 1.65 2 3.3 2 5 C2.99 5.33 3.98 5.66 5 6 C1.68629 8.20914 0.6553979 8.22481553 -3.1875 8.125 C-4.08855469 8.10695313 -4.98960937 8.08890625 -5.91796875 8.0703125 C-6.60503906 8.04710937 -7.29210937 8.02390625 -8 8 C-8 7.67 -8 7.34 -8 7 C-5.36 6.67 -2.72 6.34 0 6 C-0.33 5.34 -0.66 4.68 -1 4 C-0.34 4 0.32 4 1 4 C0.67 2.68 0.34 1.36 0 0 Z " fill="#DE5251" transform="translate(142,23)"/>
<path d="M0 0 C0.33 0 0.66 0 1 0 C1 4.29 1 8.58 1 13 C0.01 13 -0.98 13 -2 13 C-2.33 12.34 -2.66 11.68 -3 11 C-5.02463255 10.34786708 -5.02463255 10.34786708 -7 10 C-5.02 9.34 -3.04 8.68 -1 8 C-0.67 5.36 -0.34 2.72 0 0 Z " fill="#FAECE9" transform="translate(121,17)"/>
<path d="M0 0 C1.65 0.33 3.3 0.66 5 1 C4.67 1.99 4.34 2.98 4 4 C1.69 4.33 -0.62 4.66 -3 5 C-3.33 4.34 -3.66 3.68 -4 3 C-2.35 3 -0.7 3 1 3 C0.67 2.01 0.34 1.02 0 0 Z " fill="#2B2B2B" transform="translate(172,48)"/>
<path d="M0 0 C0.99 0 1.98 0 3 0 C3 3.63 3 7.26 3 11 C2.34 11 1.68 11 1 11 C1.020625 10.113125 1.04125 9.22625 1.0625 8.3125 C1.00713781 5.37830369 0.6694266 2.84506304 0 0 Z " fill="#131313" transform="translate(214,39)"/>
<path d="M0 0 C0.66 0.33 1.32 0.66 2 1 C1.67 2.98 1.34 4.96 1 7 C2.98 7 4.96 7 7 7 C7 7.33 7 7.66 7 8 C4.66705225 8.04241723 2.33297433 8.04092937 0 8 C-1 7 -1 7 -1.125 4 C-1 1 -1 1 0 0 Z " fill="#E12A26" transform="translate(110,22)"/>
<path d="M0 0 C0.33 0 0.66 0 1 0 C1 2.31 1 4.62 1 7 C1.99 7 2.98 7 4 7 C4 7.66 4 8.32 4 9 C2.35 9 0.7 9 -1 9 C-1.33 7.68 -1.66 6.36 -2 5 C-1.34 5 -0.68 5 0 5 C0 3.35 0 1.7 0 0 Z " fill="#2F2F2F" transform="translate(200,44)"/>
<path d="M0 0 C0.66 0 1.32 0 2 0 C2.33 0.99 2.66 1.98 3 3 C2.34 3 1.68 3 1 3 C1 3.66 1 4.32 1 5 C-0.65 5.66 -2.3 6.32 -4 7 C-2.92598892 4.08482708 -2.22189824 2.22189824 0 0 Z " fill="#E44846" transform="translate(11,11)"/>
<path d="M0 0 C-0.66 0.66 -1.32 1.32 -2 2 C-3.32 2 -4.64 2 -6 2 C-6.33 2.66 -6.66 3.32 -7 4 C-7 3.34 -7 2.68 -7 2 C-7.99 1.67 -8.98 1.34 -10 1 C-6.42181037 -1.33958553 -4.07775191 -0.9267618 0 0 Z " fill="#E3423F" transform="translate(30,4)"/>
<path d="M0 0 C2.97 0 5.94 0 9 0 C5.99382731 3.00617269 3.17618402 2.59585316 -1 3 C-0.67 2.01 -0.34 1.02 0 0 Z " fill="#DC312A" transform="translate(188,16)"/>
<path d="M0 0 C2.88437779 1.29299694 4.87219421 2.65941363 7 5 C5.35 5.33 3.7 5.66 2 6 C0 3 0 3 0 0 Z " fill="#DC3D38" transform="translate(12,41)"/>
<path d="M0 0 C0.33 0 0.66 0 1 0 C1.33 4.62 1.66 9.24 2 14 C1.01 14 0.02 14 -1 14 C-0.67 9.38 -0.34 4.76 0 0 Z " fill="#EEC8C1" transform="translate(3,26)"/>
<path d="M0 0 C0.86625 0.3403125 0.86625 0.3403125 1.75 0.6875 C1.75 1.6775 1.75 2.6675 1.75 3.6875 C-0.89 3.3575 -3.53 3.0275 -6.25 2.6875 C-2.80384615 -0.38942308 -2.80384615 -0.38942308 0 0 Z " fill="#DF5555" transform="translate(218.25,15.3125)"/>
<path d="M0 0 C0.99 0 1.98 0 3 0 C3.33 1.98 3.66 3.96 4 6 C2.68 5.67 1.36 5.34 0 5 C0 3.35 0 1.7 0 0 Z " fill="#DF2E29" transform="translate(133,14)"/>
<path d="M0 0 C1.32 0 2.64 0 4 0 C4 1.98 4 3.96 4 6 C2.02 4.68 0.04 3.36 -2 2 C-1.34 1.34 -0.68 0.68 0 0 Z " fill="#DF4D44" transform="translate(14,50)"/>
<path d="M0 0 C-0.33 0.66 -0.66 1.32 -1 2 C-3.31 2 -5.62 2 -8 2 C-8.33 1.34 -8.66 0.68 -9 0 C-5.93109813 -1.53445094 -3.29905734 -0.54984289 0 0 Z " fill="#E1423D" transform="translate(28,38)"/>
</svg>
